<?xml version="1.0" encoding="UTF-8" standalone="no"?> <!-- Created with Vectornator for iOS (http://vectornator.io/) --><!DOCTYPE svg PUBLIC "-//W3C//DTD SVG 1.1//EN" "http://www.w3.org/Graphics/SVG/1.1/DTD/svg11.dtd">
<svg height="100%" style="fill-rule:evenodd;clip-rule:evenodd;stroke-linecap:round;stroke-linejoin:round;" xmlns:xlink="http://www.w3.org/1999/xlink" xmlns="http://www.w3.org/2000/svg" xml:space="preserve" width="100%" xmlns:vectornator="http://vectornator.io" version="1.1" viewBox="0 0 50 50">
<g id="Layer 1" vectornator:layerName="Layer 1">
<path d="M0+25C4.44089e-16+38.8071+11.1929+50+25+50C38.8071+50+50+38.8071+50+25C50+11.1929+38.8071-1.41058e-14+25+0C11.1929+0+0+11.1929+0+25Z" opacity="1" fill="#bac3de"/>
</g>
<g id="Layer 2" vectornator:layerName="Layer 2">
<g opacity="1">
<path d="M8.85219+26.1944C8.85219+22.0948+10.6366+16.6636+12.9368+13.4722C15.8992+9.36199+19.9827+8.01661+25.0042+8.01661C29.5695+8.01661+33.48+9.92669+36.2434+12.8465C39.0929+15.8573+41.1562+20.4206+41.1562+25C41.1562+29.3933+40.6606+32.2495+37.8086+35.2648C34.5715+38.6871+28.6806+41.9834+23.9383+41.9834C15.0178+41.9834+8.85219+35.5741+8.85219+26.1944Z" opacity="1" fill="#f9e48e"/>
<path stroke="#f9e48e" stroke-width="1" d="M1.63685+30.0443C3.57128+26.1754+5.27189+30.5412+7.639+29.1209" fill="none" stroke-linecap="round" opacity="1" stroke-linejoin="round"/>
<path stroke="#f9e48e" stroke-width="1" d="M40.354+16.8528C40.523+16.1767+40.7982+14.8047+41.4093+14.3464C43.0734+13.0983+44.423+14.8011+45.6966+12.7634" fill="none" stroke-linecap="round" opacity="1" stroke-linejoin="round"/>
<path stroke="#f9e48e" stroke-width="1" d="M39.6944+34.1996C41.8576+33.4786+41.2247+36.7325+41.7391+37.7613C42.1288+38.5407+43.4377+38.4595+44.1136+38.6847" fill="none" stroke-linecap="round" opacity="1" stroke-linejoin="round"/>
<path stroke="#f9e48e" stroke-width="1" d="M26.6348+43.2358C28.4471+44.142+26.7714+46.189+26.8986+47.589C26.9653+48.3223+27.4521+48.4851+27.8221+49.0401" fill="none" stroke-linecap="round" opacity="1" stroke-linejoin="round"/>
<path stroke="#f9e48e" stroke-width="1" d="M9.41986+42.7741C9.36309+42.7457+10.5261+42.8651+10.9369+42.1805C11.5125+41.2211+12.0488+39.5422+13.4433+39.5422" fill="none" stroke-linecap="round" opacity="1" stroke-linejoin="round"/>
<path stroke="#f9e48e" stroke-width="1" d="M6.34975+9.88187C6.26874+9.88187+7.44133+9.65632+7.96741+10.0947C8.38715+10.4445+8.37822+11.1093+8.52082+11.5847C8.79838+12.5099+9.42273+13.2702+10.3088+13.7132" fill="none" stroke-linecap="round" opacity="1" stroke-linejoin="round"/>
<path stroke="#f9e48e" stroke-width="1" d="M27.2805+7.00416C27.2805+6.50595+28.152+5.79346+28.2402+5.17628C28.4448+3.74384+26.9555+2.23138+28.8342+1.29202" fill="none" stroke-linecap="round" opacity="1" stroke-linejoin="round"/>
</g>
</g>
</svg>
